<?xml version="1.0" standalone="no"?><!DOCTYPE svg PUBLIC "-//W3C//DTD SVG 1.1//EN" "http://www.w3.org/Graphics/SVG/1.1/DTD/svg11.dtd"><svg t="1589435751419" class="icon" viewBox="0 0 1024 1024" version="1.1" xmlns="http://www.w3.org/2000/svg" p-id="3013" width="32" height="32" xmlns:xlink="http://www.w3.org/1999/xlink"><defs><style type="text/css"></style></defs><path d="M335 182.9c62.6 2.3 67.3 82 164.7 108.7 73.4 20.1 95.2-18.5 166.7-4 101.8 20.7 175.2 122.8 204.2 207.8 9.2 27 46.2 146.7-20.1 265.5-40.2 72-132.5 169-222.5 154.8-94-14.7-114.5-139.3-214.3-142.1-53.5-1.5-62.1 33.9-112 26.7-100.4-14.5-149.5-169.8-153.4-182.7-5.9-19.4-21.6-77.6-10-155.3C157.5 333.7 247 179.7 335 182.9z" fill="#34A0FC" p-id="3014"></path><path d="M321.7 196.2c62.6 2.3 67.3 82 164.7 108.7 73.4 20.1 95.2-18.5 166.7-4 101.8 20.7 175.2 122.8 204.2 207.8 9.2 27 46.2 146.7-20.1 265.5-40.2 72-132.5 169-222.5 154.8-93.8-14.8-114.4-139.3-214.2-142.1-53.5-1.5-62.1 33.9-112 26.7C188 799.1 139 643.8 135.1 630.9c-5.9-19.4-21.6-77.6-10-155.3C144.2 347 233.7 193 321.7 196.2z" fill="#30AAFC" p-id="3015"></path><path d="M841.2 759.7c-40.2 72-132.5 169-222.5 154.8-93.8-14.8-114.4-139.3-214.2-142.1-53.5-1.5-62.1 33.9-112 26.7C192.1 784.6 143 629.3 139.1 616.4c-5.9-19.4-21.6-77.6-10-155.3a437 437 0 0 1 10.2-48.5c-6.4 21.2-11.3 42.4-14.3 63-11.6 77.7 4.1 136 10 155.3 3.9 12.9 52.9 168.2 153.4 182.7 49.9 7.2 58.5-28.2 112-26.7 99.8 2.8 120.3 127.4 214.2 142.1 90 14.2 182.3-82.8 222.5-154.8 13.3-23.8 22.4-47.7 28.4-70.8-5.8 18.5-13.7 37.4-24.3 56.3z" fill="#34A0FC" p-id="3016"></path><path d="M316.3 741.4h358.5v40.9H316.3z" fill="#8557DA" p-id="3017"></path><path d="M707.7 575.2l-4.8-2.7c34.7-62.7 40.6-113.9 39.5-145.8-1.2-34.4-10.6-54.1-10.7-54.2l5-2.4c0.4 0.8 10 21 11.3 56.5 1 32.5-5 84.8-40.3 148.6z m-427 82.7c-26-42.4-45.9-84.1-59.3-123.8-10.7-31.9-17.2-62.6-19.3-91.4-3.6-49.2 6.7-75.4 7.1-76.4l5.1 2.1c-0.1 0.3-10.3 26.3-6.7 74.4 3.4 44.5 19.6 117.4 77.7 212.3l-4.6 2.8z" fill="#FD595E" p-id="3018"></path><path d="M705.3 761l-409.5-13-36.3-271.3 445.8-22z" fill="#FD595E" p-id="3019"></path><path d="M685.2 739.9l-154.9-3.2L543 564.3 685.2 548z" fill="#313145" p-id="3020"></path><path d="M689.9 744.8l-164.7-3.5 13.3-181.2 151.4-17.3v202zM535.4 732l145 3.1V553.4l-133 15.2-12 163.4z" fill="#FF4856" p-id="3021"></path><path d="M606.9 681.3l-9-8.2c2.4-7.4-0.6-15.6-7.6-19.5-7.9-4.3-17.8-1.4-22.2 6.5-4.3 7.9-1.4 17.8 6.5 22.2 7 3.8 15.5 2 20.4-3.9l11.9 2.9z" fill="#FCA360" p-id="3022"></path><path d="M582.5 668m-11.6 0a11.6 11.6 0 1 0 23.2 0 11.6 11.6 0 1 0-23.2 0Z" fill="#313145" p-id="3023"></path><path d="M463.7 694.3l11.7-3.1c4.9 6 13.5 7.9 20.5 4.1a16.4 16.4 0 0 0 6.5-22.2 16.4 16.4 0 0 0-22.2-6.5c-7 3.8-10 11.9-7.8 19.2l-8.7 8.5z" fill="#FCA360" p-id="3024"></path><path d="M488.1 680.9m-11.6 0a11.6 11.6 0 1 0 23.2 0 11.6 11.6 0 1 0-23.2 0Z" fill="#313145" p-id="3025"></path><path d="M689.1 744.2l-379-12-0.3-2.3L277.9 492l411.2-20.3v272.5z m-374.2-17.3l368.7 11.7V477.5l-399.4 19.7 30.7 229.7z" fill="#FFFFFF" p-id="3026"></path><path d="M266.5 651.6l269.4-34.4V558l169.4-27.1v18.5L543 564.3l-4.8 59.3L271.7 666z" fill="#FCA360" p-id="3027"></path><path d="M415.8 332.1c-40 0-69.3-5.1-87.6-15.3l2.7-4.8c26.5 14.8 80.3 18.4 155.8 10.4 62.9-6.6 128.6-20 165.6-29.5l1.4 5.3c-37.3 9.5-103.2 23-166.4 29.7-26.7 2.8-50.5 4.2-71.5 4.2z" fill="#FD595E" p-id="3028"></path><path d="M291.9 389.6m-85.5 0a85.5 85.5 0 1 0 171 0 85.5 85.5 0 1 0-171 0Z" fill="#FCA360" p-id="3029"></path><path d="M291.9 389.6m-57.8 0a57.8 57.8 0 1 0 115.6 0 57.8 57.8 0 1 0-115.6 0Z" fill="#FD595E" p-id="3030"></path><path d="M291.9 256.6c-73.4 0-132.9 59.5-132.9 132.9s59.5 133 132.9 133 133-59.5 133-133c-0.1-73.4-59.6-132.9-133-132.9z m-103.8 99.2c6-18.3 25.6-28.3 43.9-22.4 18.3 6 28.3 25.6 22.3 43.9a34.87 34.87 0 0 1-43.9 22.4c-18.2-5.9-28.2-25.6-22.3-43.9z m88.3 114.3a34.85 34.85 0 1 1-56.4-41c11.3-15.6 33.1-19 48.6-7.7a34.87 34.87 0 0 1 7.8 48.7z m-19.3-154.8c0-19.2 15.6-34.8 34.8-34.8 19.3 0 34.8 15.6 34.8 34.8 0 19.2-15.6 34.8-34.8 34.8-19.3 0-34.8-15.6-34.8-34.8zM356 477.8a34.87 34.87 0 1 1 7.7-48.7 34.76 34.76 0 0 1-7.7 48.7z m17.3-78a34.92 34.92 0 0 1-43.9-22.4 34.92 34.92 0 0 1 22.4-43.9c18.3-6 37.9 4.1 43.9 22.4 5.9 18.2-4.1 37.9-22.4 43.9z" fill="#313145" p-id="3031"></path><path d="M291.9 389.6m-21.9 0a21.9 21.9 0 1 0 43.8 0 21.9 21.9 0 1 0-43.8 0Z" fill="#8557DA" p-id="3032"></path><path d="M657.3 374m-80.9 0a80.9 80.9 0 1 0 161.8 0 80.9 80.9 0 1 0-161.8 0Z" fill="#FCA360" p-id="3033"></path><path d="M657.3 374m-54.7 0a54.7 54.7 0 1 0 109.4 0 54.7 54.7 0 1 0-109.4 0Z" fill="#FD595E" p-id="3034"></path><path d="M657.3 248.2c-69.5 0-125.8 56.3-125.8 125.8s56.3 125.8 125.8 125.8S783.1 443.5 783.1 374c0-69.4-56.3-125.8-125.8-125.8z m-98.2 93.9a33.04 33.04 0 0 1 41.6-21.2 32.9 32.9 0 0 1 21.1 41.6 32.97 32.97 0 0 1-41.5 21.2 33.12 33.12 0 0 1-21.2-41.6z m83.5 108.1a33.05 33.05 0 0 1-46.1 7.3 32.94 32.94 0 0 1-7.2-46.1c10.7-14.7 31.3-18 46-7.3 14.8 10.8 18.1 31.4 7.3 46.1z m-18.2-146.5c0-18.2 14.7-33 32.9-33s33 14.8 33 33-14.7 33-33 33c-18.2 0-32.9-14.8-32.9-33zM718 457.5c-14.7 10.7-35.3 7.4-46.1-7.3-10.7-14.7-7.4-35.3 7.3-46.1 14.7-10.7 35.3-7.4 46.1 7.3a33.05 33.05 0 0 1-7.3 46.1z m16.3-73.8a33.12 33.12 0 0 1-41.6-21.2 33.12 33.12 0 0 1 21.2-41.6c17.3-5.6 35.9 3.8 41.6 21.2 5.6 17.3-3.8 35.9-21.2 41.6z" fill="#313145" p-id="3035"></path><path d="M705.3 522.5h14.6V666h-14.6z" fill="#8557DA" p-id="3036"></path><path d="M719.9 560h37.3v84h-37.3z" fill="#313145" p-id="3037"></path><path d="M719.9 583.3h37.3v37.4h-37.3z" fill="#363649" p-id="3038"></path><path d="M748.3 560l80-65.1-13.7 212.2-66.3-63.1z" fill="#313145" p-id="3039"></path><path d="M748.3 621.8l69.8 31.9 5.5-85.7-75.3 24z" fill="#363649" p-id="3040"></path><path d="M740.4 555.5h12.2v92.9h-12.2z m79.2-65.7l-11.1 224.8 7.5-1.4 21-228.7z" fill="#FCA360" p-id="3041"></path><path d="M359.2 574.6l-37.4 3.8-1.6-6.6 38.7-2.5z m2.1 14.8l-37.4 3.8-1.6-6.6 38.7-2.5z m2.1 14.8l-37.5 3.8-1.6-6.6 38.7-2.5zM707.3 831H312c-17.1 0-31-13.9-31-31v-25.7h457.2V800c0.1 17.2-13.8 31-30.9 31z" fill="#313145" p-id="3042"></path><path d="M281 797.3h457.2v5.5H281z" fill="#FCA360" p-id="3043"></path><path d="M284.7 811.9h449.9v5.5H284.7z" fill="#FD595E" p-id="3044"></path><path d="M607.6 817.8H404c-8.7 0-15.8-7.1-15.8-15.8 0-8.7 7.1-15.8 15.8-15.8h203.6c8.7 0 15.8 7.1 15.8 15.8 0 8.7-7 15.8-15.8 15.8z" fill="#FD595E" p-id="3045"></path><path d="M404 808.3c-3.5 0-6.3-2.8-6.3-6.3s2.8-6.3 6.3-6.3h203.6c3.5 0 6.3 2.8 6.3 6.3s-2.8 6.3-6.3 6.3H404z" fill="#8557DA" p-id="3046"></path><path d="M657.3 374m-21.9 0a21.9 21.9 0 1 0 43.8 0 21.9 21.9 0 1 0-43.8 0Z" fill="#8557DA" p-id="3047"></path><path d="M679.3 885.3c-4 7.7-13.6 10.6-21.2 6.6-7.7-4-10.6-13.6-6.6-21.2a15.7 15.7 0 1 1 27.8 14.6z m-20.2-10.7c-1.8 3.5-0.5 7.8 3 9.7 3.5 1.8 7.8 0.5 9.7-3 1.8-3.5 0.5-7.8-3-9.7-3.5-1.8-7.9-0.5-9.7 3zM373.5 203.6c5.7 6.5 5.1 16.4-1.4 22.2-6.5 5.7-16.4 5.1-22.2-1.4-5.7-6.5-5.1-16.4 1.4-22.2a15.7 15.7 0 0 1 22.2 1.4z m-17.2 15.1c2.6 3 7.1 3.3 10.1 0.7 3-2.6 3.3-7.1 0.7-10.1s-7.1-3.3-10.1-0.7c-3 2.6-3.3 7.1-0.7 10.1zM146.5 527.6c5.7 6.5 5.1 16.4-1.4 22.2-6.5 5.7-16.4 5.1-22.2-1.4-5.7-6.5-5.1-16.4 1.4-22.2a15.7 15.7 0 0 1 22.2 1.4z m-17.2 15.1c2.6 3 7.1 3.3 10.1 0.7 3-2.6 3.3-7.1 0.7-10.1-2.6-3-7.1-3.3-10.1-0.7-3 2.6-3.3 7.1-0.7 10.1zM801.8 780c0.9 1 0.8 2.5-0.2 3.3l-11.3 9.9c-1 0.9-2.5 0.8-3.3-0.2-0.9-1-0.8-2.5 0.2-3.3l11.3-9.9c0.9-0.9 2.4-0.8 3.3 0.2zM830.5 754.8c0.9 1 0.8 2.5-0.2 3.3L819 768c-1 0.9-2.5 0.8-3.3-0.2-0.9-1-0.8-2.5 0.2-3.3l11.3-9.9c0.9-0.9 2.4-0.8 3.3 0.2z" fill="#FFFFFF" p-id="3048"></path><path d="M792.9 752.4l9.9 11.3c0.9 1 0.8 2.5-0.2 3.3-1 0.9-2.5 0.8-3.3-0.2l-9.9-11.3c-0.9-1-0.8-2.5 0.2-3.3 1-0.9 2.5-0.8 3.3 0.2zM818.1 781l9.9 11.3c0.9 1 0.8 2.5-0.2 3.3-1 0.9-2.5 0.8-3.3-0.2l-9.9-11.3c-0.9-1-0.8-2.5 0.2-3.3 0.9-0.8 2.4-0.7 3.3 0.2z" fill="#FFFFFF" p-id="3049"></path><path d="M194.8 663c0.9 1 0.8 2.5-0.2 3.3l-11.3 9.9c-1 0.9-2.5 0.8-3.3-0.2-0.9-1-0.8-2.5 0.2-3.3l11.3-9.9c0.9-0.9 2.4-0.8 3.3 0.2zM223.5 637.8c0.9 1 0.8 2.5-0.2 3.3L212 651c-1 0.9-2.5 0.8-3.3-0.2-0.9-1-0.8-2.5 0.2-3.3l11.3-9.9c0.9-0.9 2.4-0.8 3.3 0.2z" fill="#FFFFFF" p-id="3050"></path><path d="M185.9 635.4l9.9 11.3c0.9 1 0.8 2.5-0.2 3.3-1 0.9-2.5 0.8-3.3-0.2l-9.9-11.3c-0.9-1-0.8-2.5 0.2-3.3 1-0.9 2.5-0.8 3.3 0.2zM211.1 664l9.9 11.3c0.9 1 0.8 2.5-0.2 3.3-1 0.9-2.5 0.8-3.3-0.2l-9.9-11.3c-0.9-1-0.8-2.5 0.2-3.3 0.9-0.8 2.4-0.7 3.3 0.2z" fill="#FFFFFF" p-id="3051"></path></svg>